<svg 
  preserveAspectRatio="none"
  xmlns="http://www.w3.org/2000/svg"
  xmlns:xlink="http://www.w3.org/1999/xlink"
  width="441px"
  height="6px">
  <path fill-rule="evenodd"  fill="rgb(0, 0, 0)"
  d="M-0.000,5.000 L-0.000,2.000 C-0.000,2.000 23.157,3.000 25.000,3.000 C25.866,3.000 79.318,2.160 81.000,2.000 C82.074,1.898 109.904,0.388 129.000,0.000 C136.260,-0.147 200.976,1.728 243.000,2.000 C247.276,2.028 271.835,3.000 273.000,3.000 C274.165,3.000 323.862,1.115 352.000,1.000 C363.939,0.951 375.156,0.121 386.000,0.000 C397.773,-0.132 414.694,2.263 417.204,2.240 C418.754,2.225 441.000,2.000 441.000,2.000 L441.000,5.000 C441.000,5.000 431.434,5.604 417.000,5.000 C408.194,4.632 397.814,2.863 386.000,3.000 C375.534,3.122 354.830,4.000 353.000,4.000 C351.738,4.000 305.403,5.708 273.000,6.000 C258.401,6.132 246.307,5.029 243.000,5.000 C228.973,4.879 212.314,5.346 196.000,5.000 C167.855,4.404 140.635,2.935 129.000,3.000 C114.289,3.082 98.152,4.879 82.000,5.000 C60.859,5.159 40.286,6.040 25.000,6.000 C9.932,5.960 -0.000,5.000 -0.000,5.000 Z"/>
</svg>